<?xml version="1.0" encoding="UTF-8" standalone="no"?>
<!-- Generator: Adobe Illustrator 16.0.0, SVG Export Plug-In . SVG Version: 6.00 Build 0)  -->

<svg
   xmlns:dc="http://purl.org/dc/elements/1.1/"
   xmlns:cc="http://creativecommons.org/ns#"
   xmlns:rdf="http://www.w3.org/1999/02/22-rdf-syntax-ns#"
   xmlns:svg="http://www.w3.org/2000/svg"
   xmlns="http://www.w3.org/2000/svg"
   xmlns:sodipodi="http://sodipodi.sourceforge.net/DTD/sodipodi-0.dtd"
   xmlns:inkscape="http://www.inkscape.org/namespaces/inkscape"
   version="1.1"
   id="Capa_1"
   x="0px"
   y="0px"
   width="512px"
   height="512px"
   viewBox="0 0 487.23 487.23"
   style="enable-background:new 0 0 487.23 487.23;"
   xml:space="preserve"
   sodipodi:docname="update.svg"
   inkscape:version="0.92.3 (2405546, 2018-03-11)"><metadata
   id="metadata45"><rdf:RDF><cc:Work
       rdf:about=""><dc:format>image/svg+xml</dc:format><dc:type
         rdf:resource="http://purl.org/dc/dcmitype/StillImage" /></cc:Work></rdf:RDF></metadata><defs
   id="defs43" /><sodipodi:namedview
   pagecolor="#ffffff"
   bordercolor="#666666"
   borderopacity="1"
   objecttolerance="10"
   gridtolerance="10"
   guidetolerance="10"
   inkscape:pageopacity="0"
   inkscape:pageshadow="2"
   inkscape:window-width="1920"
   inkscape:window-height="1017"
   id="namedview41"
   showgrid="false"
   inkscape:zoom="0.4609375"
   inkscape:cx="-96.542373"
   inkscape:cy="256"
   inkscape:window-x="-8"
   inkscape:window-y="-8"
   inkscape:window-maximized="1"
   inkscape:current-layer="Capa_1" />
<g
   id="g8"
   transform="matrix(0.89112667,0,0,0.86864407,24.315354,30.265004)"
   style="stroke:#000000;stroke-opacity:1">
	<g
   id="g6"
   style="stroke:#000000;stroke-opacity:1">
		<path
   d="m 55.323,203.641 c 15.664,0 29.813,-9.405 35.872,-23.854 25.017,-59.604 83.842,-101.61 152.42,-101.61 37.797,0 72.449,12.955 100.23,34.442 l -21.775,3.371 c -7.438,1.153 -13.224,7.054 -14.232,14.512 -1.01,7.454 3.008,14.686 9.867,17.768 l 119.746,53.872 c 5.249,2.357 11.33,1.904 16.168,-1.205 4.83,-3.114 7.764,-8.458 7.796,-14.208 l 0.621,-131.943 c 0.042,-7.506 -4.851,-14.144 -12.024,-16.332 -7.185,-2.188 -14.947,0.589 -19.104,6.837 L 414.403,70.096 C 370.398,26.778 310.1,0 243.615,0 142.806,0 56.133,61.562 19.167,149.06 c -5.134,12.128 -3.84,26.015 3.429,36.987 7.269,10.976 19.556,17.594 32.727,17.594 z"
   id="path2"
   inkscape:connector-curvature="0"
   style="fill:#006df0;stroke:#000000;stroke-opacity:1" />
		<path
   d="m 464.635,301.184 c -7.27,-10.977 -19.558,-17.594 -32.728,-17.594 -15.664,0 -29.813,9.405 -35.872,23.854 -25.018,59.604 -83.843,101.61 -152.42,101.61 -37.798,0 -72.45,-12.955 -100.232,-34.442 l 21.776,-3.369 c 7.437,-1.153 13.223,-7.055 14.233,-14.514 1.009,-7.453 -3.008,-14.686 -9.867,-17.768 L 49.779,285.089 c -5.25,-2.356 -11.33,-1.905 -16.169,1.205 -4.829,3.114 -7.764,8.458 -7.795,14.207 l -0.622,131.943 c -0.042,7.506 4.85,14.144 12.024,16.332 7.185,2.188 14.948,-0.59 19.104,-6.839 l 16.505,-24.805 c 44.004,43.32 104.303,70.098 170.788,70.098 100.811,0 187.481,-61.561 224.446,-149.059 5.137,-12.128 3.843,-26.014 -3.425,-36.987 z"
   id="path4"
   inkscape:connector-curvature="0"
   style="fill:#006df0;stroke:#000000;stroke-opacity:1" />
	</g>
</g>
<g
   id="g10">
</g>
<g
   id="g12">
</g>
<g
   id="g14">
</g>
<g
   id="g16">
</g>
<g
   id="g18">
</g>
<g
   id="g20">
</g>
<g
   id="g22">
</g>
<g
   id="g24">
</g>
<g
   id="g26">
</g>
<g
   id="g28">
</g>
<g
   id="g30">
</g>
<g
   id="g32">
</g>
<g
   id="g34">
</g>
<g
   id="g36">
</g>
<g
   id="g38">
</g>
<path
   style="opacity:0;fill:#0091ff;fill-opacity:1;stroke:#000000;stroke-width:2.16949153;stroke-opacity:1"
   d="M 47.006503,211.25436 C 35.364745,208.17769 22.740355,195.51366 19.574187,183.73591 16.156694,171.02327 18.040199,162.54513 29.233086,140.25876 58.454198,82.076052 112.67556,35.327573 175.25558,14.361338 261.03745,-14.37823 358.19676,5.364518 424.43468,64.994465 l 11.14652,10.034547 9.24256,-14.186026 C 458.64144,39.634809 466.59111,35.811588 478.0803,44.848987 l 5.71631,4.496445 v 76.481318 76.48131 l -5.40607,5.07874 c -3.06341,2.87793 -7.99904,5.03844 -11.38983,4.98575 -6.72998,-0.10457 -131.97262,-55.77026 -137.60918,-61.16214 -3.49609,-3.34433 -4.74402,-8.03652 -4.21762,-15.8581 0.45993,-6.83408 8.98165,-12.25554 21.68129,-13.79348 6.70761,-0.8123 13.01524,-1.95476 14.01698,-2.53881 2.89059,-1.68534 -22.04219,-17.31757 -38.70269,-24.265634 -46.35268,-19.330818 -101.53349,-16.898829 -146.3813,6.451474 -32.31082,16.82284 -57.31792,42.03327 -74.13709,74.7399 -9.553861,18.57847 -17.026592,28.00582 -25.718897,32.44611 -8.185109,4.1812 -19.644737,5.31525 -28.9257,2.86249 z"
   id="path852"
   inkscape:connector-curvature="0"
   transform="scale(0.95162109)" /><path
   style="opacity:0;fill:#0091ff;fill-opacity:1;stroke:#000000;stroke-width:2.16949153;stroke-opacity:1"
   d="M 47.006503,211.25436 C 35.364745,208.17769 22.740355,195.51366 19.574187,183.73591 16.156694,171.02327 18.040199,162.54513 29.233086,140.25876 58.454198,82.076052 112.67556,35.327573 175.25558,14.361338 261.03745,-14.37823 358.19676,5.364518 424.43468,64.994465 l 11.14652,10.034547 9.24256,-14.186026 C 458.64144,39.634809 466.59111,35.811588 478.0803,44.848987 l 5.71631,4.496445 v 76.481318 76.48131 l -5.40607,5.07874 c -3.06341,2.87793 -7.99904,5.03844 -11.38983,4.98575 -6.72998,-0.10457 -131.97262,-55.77026 -137.60918,-61.16214 -3.49609,-3.34433 -4.74402,-8.03652 -4.21762,-15.8581 0.45993,-6.83408 8.98165,-12.25554 21.68129,-13.79348 6.70761,-0.8123 13.01524,-1.95476 14.01698,-2.53881 2.89059,-1.68534 -22.04219,-17.31757 -38.70269,-24.265634 -46.35268,-19.330818 -101.53349,-16.898829 -146.3813,6.451474 -32.31082,16.82284 -57.31792,42.03327 -74.13709,74.7399 -9.553861,18.57847 -17.026592,28.00582 -25.718897,32.44611 -8.185109,4.1812 -19.644737,5.31525 -28.9257,2.86249 z"
   id="path854"
   inkscape:connector-curvature="0"
   transform="scale(0.95162109)" /><path
   style="opacity:0;fill:#0091ff;fill-opacity:1;stroke:#000000;stroke-width:2.16949153;stroke-opacity:1"
   d="m 59.781914,211.1631 c -11.071111,-6.27087 -17.226503,-16.87185 -17.226503,-29.66793 0,-7.64063 2.250963,-14.20155 9.612459,-28.01759 29.550261,-55.459879 80.60987,-95.672572 143.08637,-112.689633 18.44454,-5.023839 24.59948,-5.619703 58.57627,-5.670807 32.38591,-0.04871 40.52484,0.63913 55.37501,4.679879 34.11155,9.281783 62.5741,23.433757 87.69562,43.603485 6.62641,5.320253 13.18381,10.551821 14.57198,11.625707 1.73093,1.339029 5.71032,-2.512747 12.66501,-12.258881 8.84688,-12.397807 11.01653,-14.207159 17.00146,-14.178176 16.15037,0.07821 16.54027,2.064516 15.05449,76.692226 -1.2342,61.99118 -1.46052,64.6476 -5.76447,67.66219 -2.46389,1.72578 -6.2802,3.13779 -8.48065,3.13779 -6.44553,0 -119.4089,-50.06771 -123.57608,-54.77148 -9.18927,-10.37255 -1.79436,-20.26881 17.67969,-23.65988 l 13.88307,-2.4175 -5.20511,-4.12985 c -2.86281,-2.27142 -11.05835,-7.15785 -18.21234,-10.85873 -48.7399,-25.21408 -104.67876,-24.053749 -152.82153,3.16995 -16.81709,9.5097 -41.9819,34.27597 -53.33347,52.48883 -5.34552,8.57653 -9.71912,16.39587 -9.71912,17.37631 0,0.98044 -2.56937,5.15124 -5.70972,9.26844 -10.517845,13.78961 -29.592211,17.42924 -45.152436,8.61565 z"
   id="path858"
   inkscape:connector-curvature="0"
   transform="scale(0.95162109)" /><path
   style="opacity:0;fill:#0091ff;fill-opacity:1;stroke:#000000;stroke-width:2.16949153;stroke-opacity:1"
   d="m 59.781914,211.1631 c -11.071111,-6.27087 -17.226503,-16.87185 -17.226503,-29.66793 0,-7.64063 2.250963,-14.20155 9.612459,-28.01759 29.550261,-55.459879 80.60987,-95.672572 143.08637,-112.689633 18.44454,-5.023839 24.59948,-5.619703 58.57627,-5.670807 32.38591,-0.04871 40.52484,0.63913 55.37501,4.679879 34.11155,9.281783 62.5741,23.433757 87.69562,43.603485 6.62641,5.320253 13.18381,10.551821 14.57198,11.625707 1.73093,1.339029 5.71032,-2.512747 12.66501,-12.258881 8.84688,-12.397807 11.01653,-14.207159 17.00146,-14.178176 16.15037,0.07821 16.54027,2.064516 15.05449,76.692226 -1.2342,61.99118 -1.46052,64.6476 -5.76447,67.66219 -2.46389,1.72578 -6.2802,3.13779 -8.48065,3.13779 -6.44553,0 -119.4089,-50.06771 -123.57608,-54.77148 -9.18927,-10.37255 -1.79436,-20.26881 17.67969,-23.65988 l 13.88307,-2.4175 -5.20511,-4.12985 c -2.86281,-2.27142 -11.05835,-7.15785 -18.21234,-10.85873 -48.7399,-25.21408 -104.67876,-24.053749 -152.82153,3.16995 -16.81709,9.5097 -41.9819,34.27597 -53.33347,52.48883 -5.34552,8.57653 -9.71912,16.39587 -9.71912,17.37631 0,0.98044 -2.56937,5.15124 -5.70972,9.26844 -10.517845,13.78961 -29.592211,17.42924 -45.152436,8.61565 z"
   id="path860"
   inkscape:connector-curvature="0"
   transform="scale(0.95162109)" /><path
   style="opacity:0;fill:#0091ff;fill-opacity:1;stroke:#000000;stroke-width:2.16949153;stroke-opacity:1"
   d="m 59.781914,211.1631 c -11.071111,-6.27087 -17.226503,-16.87185 -17.226503,-29.66793 0,-7.64063 2.250963,-14.20155 9.612459,-28.01759 29.550261,-55.459879 80.60987,-95.672572 143.08637,-112.689633 18.44454,-5.023839 24.59948,-5.619703 58.57627,-5.670807 32.38591,-0.04871 40.52484,0.63913 55.37501,4.679879 34.11155,9.281783 62.5741,23.433757 87.69562,43.603485 6.62641,5.320253 13.18381,10.551821 14.57198,11.625707 1.73093,1.339029 5.71032,-2.512747 12.66501,-12.258881 8.84688,-12.397807 11.01653,-14.207159 17.00146,-14.178176 16.15037,0.07821 16.54027,2.064516 15.05449,76.692226 -1.2342,61.99118 -1.46052,64.6476 -5.76447,67.66219 -2.46389,1.72578 -6.2802,3.13779 -8.48065,3.13779 -6.44553,0 -119.4089,-50.06771 -123.57608,-54.77148 -9.18927,-10.37255 -1.79436,-20.26881 17.67969,-23.65988 l 13.88307,-2.4175 -5.20511,-4.12985 c -2.86281,-2.27142 -11.05835,-7.15785 -18.21234,-10.85873 -48.7399,-25.21408 -104.67876,-24.053749 -152.82153,3.16995 -16.81709,9.5097 -41.9819,34.27597 -53.33347,52.48883 -5.34552,8.57653 -9.71912,16.39587 -9.71912,17.37631 0,0.98044 -2.56937,5.15124 -5.70972,9.26844 -10.517845,13.78961 -29.592211,17.42924 -45.152436,8.61565 z"
   id="path862"
   inkscape:connector-curvature="0"
   transform="scale(0.95162109)" /><path
   style="opacity:0;fill:#0091ff;fill-opacity:1;stroke:#000000;stroke-width:2.16949153;stroke-opacity:1"
   d="m 59.781914,211.1631 c -11.071111,-6.27087 -17.226503,-16.87185 -17.226503,-29.66793 0,-7.64063 2.250963,-14.20155 9.612459,-28.01759 29.550261,-55.459879 80.60987,-95.672572 143.08637,-112.689633 18.44454,-5.023839 24.59948,-5.619703 58.57627,-5.670807 32.38591,-0.04871 40.52484,0.63913 55.37501,4.679879 34.11155,9.281783 62.5741,23.433757 87.69562,43.603485 6.62641,5.320253 13.18381,10.551821 14.57198,11.625707 1.73093,1.339029 5.71032,-2.512747 12.66501,-12.258881 8.84688,-12.397807 11.01653,-14.207159 17.00146,-14.178176 16.15037,0.07821 16.54027,2.064516 15.05449,76.692226 -1.2342,61.99118 -1.46052,64.6476 -5.76447,67.66219 -2.46389,1.72578 -6.2802,3.13779 -8.48065,3.13779 -6.44553,0 -119.4089,-50.06771 -123.57608,-54.77148 -9.18927,-10.37255 -1.79436,-20.26881 17.67969,-23.65988 l 13.88307,-2.4175 -5.20511,-4.12985 c -2.86281,-2.27142 -11.05835,-7.15785 -18.21234,-10.85873 -48.7399,-25.21408 -104.67876,-24.053749 -152.82153,3.16995 -16.81709,9.5097 -41.9819,34.27597 -53.33347,52.48883 -5.34552,8.57653 -9.71912,16.39587 -9.71912,17.37631 0,0.98044 -2.56937,5.15124 -5.70972,9.26844 -10.517845,13.78961 -29.592211,17.42924 -45.152436,8.61565 z"
   id="path864"
   inkscape:connector-curvature="0"
   transform="scale(0.95162109)" /><path
   style="opacity:0;fill:#0091ff;fill-opacity:1;stroke:#000000;stroke-width:2.16949153;stroke-opacity:1"
   d="m 59.781914,211.1631 c -11.071111,-6.27087 -17.226503,-16.87185 -17.226503,-29.66793 0,-7.64063 2.250963,-14.20155 9.612459,-28.01759 29.550261,-55.459879 80.60987,-95.672572 143.08637,-112.689633 18.44454,-5.023839 24.59948,-5.619703 58.57627,-5.670807 32.38591,-0.04871 40.52484,0.63913 55.37501,4.679879 34.11155,9.281783 62.5741,23.433757 87.69562,43.603485 6.62641,5.320253 13.18381,10.551821 14.57198,11.625707 1.73093,1.339029 5.71032,-2.512747 12.66501,-12.258881 8.84688,-12.397807 11.01653,-14.207159 17.00146,-14.178176 16.15037,0.07821 16.54027,2.064516 15.05449,76.692226 -1.2342,61.99118 -1.46052,64.6476 -5.76447,67.66219 -2.46389,1.72578 -6.2802,3.13779 -8.48065,3.13779 -6.44553,0 -119.4089,-50.06771 -123.57608,-54.77148 -9.18927,-10.37255 -1.79436,-20.26881 17.67969,-23.65988 l 13.88307,-2.4175 -5.20511,-4.12985 c -2.86281,-2.27142 -11.05835,-7.15785 -18.21234,-10.85873 -48.7399,-25.21408 -104.67876,-24.053749 -152.82153,3.16995 -16.81709,9.5097 -41.9819,34.27597 -53.33347,52.48883 -5.34552,8.57653 -9.71912,16.39587 -9.71912,17.37631 0,0.98044 -2.56937,5.15124 -5.70972,9.26844 -10.517845,13.78961 -29.592211,17.42924 -45.152436,8.61565 z"
   id="path866"
   inkscape:connector-curvature="0"
   transform="scale(0.95162109)" /><path
   style="opacity:0;fill:#0091ff;fill-opacity:1;stroke:#000000;stroke-width:2.16949153;stroke-opacity:1"
   d="m 206.10169,470.03343 c -35.27997,-7.48451 -67.66361,-22.87105 -96.70056,-45.94565 -9.06777,-7.20582 -16.73973,-12.77883 -17.048805,-12.38447 -0.309074,0.39437 -4.568389,6.69184 -9.465144,13.99439 -9.258674,13.80749 -14.757348,17.06112 -23.327088,13.80291 -9.910342,-3.7679 -10.349126,-7.39172 -9.159508,-75.64628 1.097703,-62.98095 1.190698,-64.03868 5.970469,-67.90911 2.670469,-2.16241 6.5748,-3.93166 8.676292,-3.93166 2.101491,0 30.676187,11.80207 63.499324,26.22683 63.73285,28.00862 66.91372,30.15755 62.36172,42.13022 -2.41989,6.36479 -7.78586,8.93683 -22.7637,10.91122 l -10.83836,1.42872 6.49937,5.20395 c 10.00908,8.0141 35.22246,19.56828 52.05871,23.8562 19.85769,5.05742 55.39302,5.10717 75.9322,0.1063 8.35254,-2.03367 23.48475,-7.77887 33.62712,-12.7671 25.33178,-12.4587 53.78844,-40.46727 66.69338,-65.6432 4.89433,-9.54822 11.1719,-19.48997 13.95016,-22.09277 10.89342,-10.20547 25.41216,-11.96863 40.08122,-4.86746 12.09355,5.85439 18.13673,15.68067 18.07505,29.39028 -0.0571,12.6817 -4.61034,23.28428 -20.40651,47.51775 -32.75035,50.24349 -86.62535,86.07669 -146.48947,97.43272 -24.37418,4.6237 -67.40438,4.23985 -91.22587,-0.81379 z"
   id="path868"
   inkscape:connector-curvature="0"
   transform="scale(0.95162109)" /><path
   style="opacity:0;fill:#0091ff;fill-opacity:1;stroke:#000000;stroke-width:2.16949153;stroke-opacity:1"
   d="m 206.10169,470.03343 c -35.27997,-7.48451 -67.66361,-22.87105 -96.70056,-45.94565 -9.06777,-7.20582 -16.73973,-12.77883 -17.048805,-12.38447 -0.309074,0.39437 -4.568389,6.69184 -9.465144,13.99439 -9.258674,13.80749 -14.757348,17.06112 -23.327088,13.80291 -9.910342,-3.7679 -10.349126,-7.39172 -9.159508,-75.64628 1.097703,-62.98095 1.190698,-64.03868 5.970469,-67.90911 2.670469,-2.16241 6.5748,-3.93166 8.676292,-3.93166 2.101491,0 30.676187,11.80207 63.499324,26.22683 63.73285,28.00862 66.91372,30.15755 62.36172,42.13022 -2.41989,6.36479 -7.78586,8.93683 -22.7637,10.91122 l -10.83836,1.42872 6.49937,5.20395 c 10.00908,8.0141 35.22246,19.56828 52.05871,23.8562 19.85769,5.05742 55.39302,5.10717 75.9322,0.1063 8.35254,-2.03367 23.48475,-7.77887 33.62712,-12.7671 25.33178,-12.4587 53.78844,-40.46727 66.69338,-65.6432 4.89433,-9.54822 11.1719,-19.48997 13.95016,-22.09277 10.89342,-10.20547 25.41216,-11.96863 40.08122,-4.86746 12.09355,5.85439 18.13673,15.68067 18.07505,29.39028 -0.0571,12.6817 -4.61034,23.28428 -20.40651,47.51775 -32.75035,50.24349 -86.62535,86.07669 -146.48947,97.43272 -24.37418,4.6237 -67.40438,4.23985 -91.22587,-0.81379 z"
   id="path870"
   inkscape:connector-curvature="0"
   transform="scale(0.95162109)" /><path
   style="opacity:1;fill:#0091ff;fill-opacity:1;stroke:#000000;stroke-width:2.16949153;stroke-opacity:1"
   d="m 206.10169,470.03343 c -35.27997,-7.48451 -67.66361,-22.87105 -96.70056,-45.94565 -9.06777,-7.20582 -16.73973,-12.77883 -17.048805,-12.38447 -0.309074,0.39437 -4.568389,6.69184 -9.465144,13.99439 -9.258674,13.80749 -14.757348,17.06112 -23.327088,13.80291 -9.910342,-3.7679 -10.349126,-7.39172 -9.159508,-75.64628 1.097703,-62.98095 1.190698,-64.03868 5.970469,-67.90911 2.670469,-2.16241 6.5748,-3.93166 8.676292,-3.93166 2.101491,0 30.676187,11.80207 63.499324,26.22683 63.73285,28.00862 66.91372,30.15755 62.36172,42.13022 -2.41989,6.36479 -7.78586,8.93683 -22.7637,10.91122 l -10.83836,1.42872 6.49937,5.20395 c 10.00908,8.0141 35.22246,19.56828 52.05871,23.8562 19.85769,5.05742 55.39302,5.10717 75.9322,0.1063 8.35254,-2.03367 23.48475,-7.77887 33.62712,-12.7671 25.33178,-12.4587 53.78844,-40.46727 66.69338,-65.6432 4.89433,-9.54822 11.1719,-19.48997 13.95016,-22.09277 10.89342,-10.20547 25.41216,-11.96863 40.08122,-4.86746 12.09355,5.85439 18.13673,15.68067 18.07505,29.39028 -0.0571,12.6817 -4.61034,23.28428 -20.40651,47.51775 -32.75035,50.24349 -86.62535,86.07669 -146.48947,97.43272 -24.37418,4.6237 -67.40438,4.23985 -91.22587,-0.81379 z"
   id="path872"
   inkscape:connector-curvature="0"
   transform="scale(0.95162109)" /><path
   style="opacity:1;fill:#0091ff;fill-opacity:1;stroke:#000000;stroke-width:2.16949153;stroke-opacity:1"
   d="m 59.781914,211.1631 c -11.071111,-6.27087 -17.226503,-16.87185 -17.226503,-29.66793 0,-7.64063 2.250963,-14.20155 9.612459,-28.01759 29.550261,-55.459879 80.60987,-95.672572 143.08637,-112.689633 18.44454,-5.023839 24.59948,-5.619703 58.57627,-5.670807 32.38591,-0.04871 40.52484,0.63913 55.37501,4.679879 34.11155,9.281783 62.5741,23.433757 87.69562,43.603485 6.62641,5.320253 13.18381,10.551821 14.57198,11.625707 1.73093,1.339029 5.71032,-2.512747 12.66501,-12.258881 8.84688,-12.397807 11.01653,-14.207159 17.00146,-14.178176 16.15037,0.07821 16.54027,2.064516 15.05449,76.692226 -1.2342,61.99118 -1.46052,64.6476 -5.76447,67.66219 -2.46389,1.72578 -6.2802,3.13779 -8.48065,3.13779 -6.44553,0 -119.4089,-50.06771 -123.57608,-54.77148 -9.18927,-10.37255 -1.79436,-20.26881 17.67969,-23.65988 l 13.88307,-2.4175 -5.20511,-4.12985 c -2.86281,-2.27142 -11.05835,-7.15785 -18.21234,-10.85873 -48.7399,-25.21408 -104.67876,-24.053749 -152.82153,3.16995 -16.81709,9.5097 -41.9819,34.27597 -53.33347,52.48883 -5.34552,8.57653 -9.71912,16.39587 -9.71912,17.37631 0,0.98044 -2.56937,5.15124 -5.70972,9.26844 -10.517845,13.78961 -29.592211,17.42924 -45.152436,8.61565 z"
   id="path884"
   inkscape:connector-curvature="0"
   transform="scale(0.95162109)" /><path
   style="opacity:1;fill:#0091ff;fill-opacity:1;stroke:#000000;stroke-width:2.16949153;stroke-opacity:1"
   d="M 62.824329,209.83342 C 47.06401,202.67452 41.370773,187.49481 47.51177,169.006 52.862215,152.89732 74.79685,120.61056 92.594866,102.64578 119.97205,75.012085 154.19204,54.947056 193.30086,43.596419 c 17.75048,-5.15176 22.63701,-5.604184 60.52965,-5.604184 37.88255,0 42.8014,0.455121 60.74576,5.620566 26.30619,7.572471 54.60671,21.77814 77.58631,38.945062 10.45552,7.810803 19.9088,14.201459 21.0073,14.201459 1.0985,0 5.67369,-4.637288 10.1671,-10.305085 10.87106,-13.712264 13.5368,-15.728813 20.79239,-15.728813 10.24186,0 10.95625,5.319589 9.76032,72.677966 -0.59318,33.41017 -1.78056,62.46266 -2.63864,64.5611 -3.28492,8.03327 -10.52726,6.55844 -49.01361,-9.98109 -54.34904,-23.35654 -78.44291,-34.95533 -82.83212,-39.87539 -7.55703,-8.471 1.62925,-16.50769 21.95033,-19.20337 6.1527,-0.81619 11.18672,-2.15087 11.18672,-2.96598 0,-5.54464 -38.33745,-25.04773 -60.25613,-30.65358 -20.45379,-5.23119 -53.28907,-5.53253 -74.90882,-0.68745 -31.45297,7.04875 -62.98667,26.12191 -83.59552,50.56279 -8.72391,10.34605 -24.22258,33.51169 -24.22258,36.20516 0,4.0396 -12.230133,16.83693 -18.656981,19.52224 -9.666542,4.03894 -17.513782,3.74426 -28.07801,-1.0544 z"
   id="path841"
   inkscape:connector-curvature="0"
   transform="scale(0.95162109)" /><path
   style="opacity:1;fill:#0091ff;fill-opacity:1;stroke:#000000;stroke-width:2.16949153;stroke-opacity:1"
   d="m 215.86441,469.53526 c -32.33781,-4.61053 -69.85452,-21.04938 -101.84499,-44.62581 -10.12998,-7.46562 -19.6239,-13.57386 -21.097607,-13.57386 -1.473708,0 -5.651148,4.31919 -9.2832,9.5982 -11.817407,17.17601 -21.439799,21.46748 -28.651321,12.77813 -3.163428,-3.8117 -2.889347,-123.45565 0.302042,-131.84964 3.803189,-10.00315 8.716468,-8.98791 57.039476,11.78614 59.28534,25.48675 76.20974,34.4008 77.09273,40.60461 1.12071,7.87392 -6.54238,13.28193 -21.16447,14.93623 -7.22614,0.81755 -13.13843,2.28971 -13.13843,3.27149 0,6.16123 42.78643,27.38156 64.67377,32.07555 16.32905,3.50196 55.3056,3.00613 72.0042,-0.91598 29.49699,-6.92815 62.49615,-27.64261 83.6206,-52.4909 4.31249,-5.07272 12.9567,-17.76424 19.20935,-28.20339 17.02333,-28.42147 29.49888,-34.38613 50.57816,-24.18181 17.18862,8.32086 21.37227,28.21349 10.49016,49.87928 -31.78257,63.27769 -91.95719,108.09956 -161.47059,120.27353 -19.92858,3.49012 -56.28039,3.7862 -78.35988,0.63823 z"
   id="path843"
   inkscape:connector-curvature="0"
   transform="scale(0.95162109)" /></svg>